<svg xmlns="http://www.w3.org/2000/svg" shape-rendering="geometricPrecision" text-rendering="geometricPrecision" image-rendering="optimizeQuality" fill-rule="evenodd" clip-rule="evenodd" viewBox="0 0 512 512"><path fill="#0085FF" d="M256 0c141.385 0 256 114.615 256 256S397.385 512 256 512 0 397.385 0 256 114.615 0 256 0z"/><path fill="#fff" fill-rule="nonzero" d="M183.776 158.537c29.233 22.022 60.681 66.666 72.223 90.625 11.543-23.959 42.992-68.603 72.225-90.625 21.097-15.886 55.275-28.181 55.275 10.937 0 7.81-4.463 65.631-7.084 75.02-9.1 32.629-42.27 40.953-71.774 35.916 51.573 8.806 64.691 37.97 36.357 67.137-53.808 55.394-77.34-13.898-83.364-31.653-1.738-5.111-1.49-5.228-3.268 0-6.026 17.755-29.555 87.047-83.364 31.653-28.334-29.167-15.216-58.331 36.357-67.137-29.504 5.037-62.674-3.287-71.774-35.916-2.621-9.389-7.084-67.21-7.084-75.02 0-39.118 34.182-26.823 55.275-10.937z"/></svg>