<svg xmlns="http://www.w3.org/2000/svg" viewBox="0 0 512 512" width="512" height="512">
  <defs>
    <radialGradient id="rg" cx="0.2" cy="0.9" r="1.3">
      <stop offset="0" stop-color="#FED576" />
      <stop offset="0.25" stop-color="#F47A20" />
      <stop offset="0.6" stop-color="#D62976" />
      <stop offset="0.8" stop-color="#962FBF" />
      <stop offset="1" stop-color="#4F5BD5" />
    </radialGradient>
  </defs>
  <rect width="512" height="512" rx="115" fill="url(#rg)" />
  <path fill="#ffffff" d="M256 109c48 0 53.6.2 72.5 1 17.5.8 27 3.7 33.3 6.2 8.4 3.2 14.3 7.1 20.6 13.4 6.3 6.3 10.2 12.2 13.4 20.6 2.5 6.3 5.4 15.8 6.2 33.3.9 18.9 1 24.5 1 72.5s-.2 53.6-1 72.5c-.8 17.5-3.7 27-6.2 33.3-3.2 8.4-7.1 14.3-13.4 20.6-6.3 6.3-12.2 10.2-20.6 13.4-6.3 2.5-15.8 5.4-33.3 6.2-18.9.9-24.5 1-72.5 1s-53.6-.2-72.5-1c-17.5-.8-27-3.7-33.3-6.2-8.4-3.2-14.3-7.1-20.6-13.4-6.3-6.3-10.2-12.2-13.4-20.6-2.5-6.3-5.4-15.8-6.2-33.3-.9-18.9-1-24.5-1-72.5s.2-53.6 1-72.5c.8-17.5 3.7-27 6.2-33.3 3.2-8.4 7.1-14.3 13.4-20.6 6.3-6.3 12.2-10.2 20.6-13.4 6.3-2.5 15.8-5.4 33.3-6.2 18.9-.9 24.5-1 72.5-1m0-36c-48.8 0-54.9.2-74 1.1-19.1.9-32.2 3.9-43.6 8.3-11.8 4.6-21.8 10.7-31.8 20.7S89.9 121.7 85.3 133.5c-4.4 11.4-7.4 24.5-8.3 43.6-1 19.1-1.1 25.2-1.1 74s.2 54.9 1.1 74c.9 19.1 3.9 32.2 8.3 43.6 4.6 11.8 10.7 21.8 20.7 31.8s20 16.1 31.8 20.7c11.4 4.4 24.5 7.4 43.6 8.3 19.1 1 25.2 1.1 74 1.1s54.9-.2 74-1.1c19.1-.9 32.2-3.9 43.6-8.3 11.8-4.6 21.8-10.7 31.8-20.7s16.1-20 20.7-31.8c4.4-11.4 7.4-24.5 8.3-43.6 1-19.1 1.1-25.2 1.1-74s-.2-54.9-1.1-74c-.9-19.1-3.9-32.2-8.3-43.6-4.6-11.8-10.7-21.8-20.7-31.8s-20-16.1-31.8-20.7c-11.4-4.4-24.5-7.4-43.6-8.3-19.1-1-25.2-1.1-74-1.1z" />
  <path fill="#ffffff" d="M256 161c-52.5 0-95 42.5-95 95s42.5 95 95 95 95-42.5 95-95-42.5-95-95-95m0 154c-32.6 0-59-26.4-59-59s26.4-59 59-59 59 26.4 59 59-26.4 59-59 59" />
  <circle fill="#ffffff" cx="376" cy="136" r="22" />
</svg>
