<svg xmlns="http://www.w3.org/2000/svg" xmlns:xlink="http://www.w3.org/1999/xlink" version="1.1" width="256" height="256" viewBox="0 0 256 256" xml:space="preserve">
<g style="stroke: none; stroke-width: 0; stroke-dasharray: none; stroke-linecap: butt; stroke-linejoin: miter; stroke-miterlimit: 10; fill: rgb(255,255,255); fill-rule: nonzero; opacity: 1;" transform="translate(0 -2.842170943040401e-14) scale(2.81 2.81)">
	<path d="M 45 90 C 20.187 90 0 69.814 0 45 C 0 20.187 20.187 0 45 0 c 24.814 0 45 20.187 45 45 C 90 69.814 69.814 90 45 90 z M 45 5.625 C 23.289 5.625 5.625 23.289 5.625 45 c 0 21.712 17.664 39.375 39.375 39.375 c 21.712 0 39.375 -17.663 39.375 -39.375 C 84.375 23.289 66.712 5.625 45 5.625 z" style="stroke: none; stroke-width: 1; stroke-dasharray: none; stroke-linecap: butt; stroke-linejoin: miter; stroke-miterlimit: 10; fill: rgb(255,255,255); fill-rule: nonzero; opacity: 1;" transform=" matrix(1 0 0 1 0 0) " stroke-linecap="round"/>
</g>
<g style="stroke: none; stroke-width: 0; stroke-dasharray: none; stroke-linecap: butt; stroke-linejoin: miter; stroke-miterlimit: 10; fill: none; fill-rule: nonzero; opacity: 1;" transform="translate(36.274260950317284 46.17984832069335) scale(1.82 1.82)">
	<path d="M 73.321 57.774 c -4.618 0 -8.776 1.963 -11.717 5.086 L 32.498 48.017 c 0.186 -0.978 0.293 -1.985 0.293 -3.017 c 0 -1.032 -0.107 -2.038 -0.293 -3.016 L 61.605 27.14 c 2.941 3.122 7.099 5.086 11.717 5.086 c 8.885 0 16.112 -7.228 16.112 -16.112 C 89.434 7.228 82.206 0 73.321 0 S 57.208 7.228 57.208 16.113 c 0 1.032 0.107 2.038 0.293 3.016 L 28.395 33.973 c -2.94 -3.123 -7.099 -5.086 -11.716 -5.086 C 7.794 28.887 0.566 36.115 0.566 45 s 7.228 16.112 16.113 16.112 c 4.617 0 8.776 -1.963 11.716 -5.085 l 29.106 14.844 c -0.186 0.978 -0.293 1.985 -0.293 3.017 C 57.208 82.772 64.437 90 73.321 90 s 16.112 -7.228 16.112 -16.112 S 82.206 57.774 73.321 57.774 z" style="stroke: none; stroke-width: 1; stroke-dasharray: none; stroke-linecap: butt; stroke-linejoin: miter; stroke-miterlimit: 10; fill: rgb(255,192,0); fill-rule: nonzero; opacity: 1;" transform=" matrix(1 0 0 1 0 0) " stroke-linecap="round"/>
</g>
</svg>